G04 #@! TF.FileFunction,Copper,L1,Top,Signal*
%FSLAX46Y46*%
G04 Gerber Fmt 4.6, Leading zero omitted, Abs format (unit mm)*
G04 Created by KiCad (PCBNEW 4.0.2-stable) date 2016/05/22 12:46:19*
%MOMM*%
G01*
G04 APERTURE LIST*
%ADD10C,0.100000*%
%ADD11C,1.727200*%
%ADD12R,1.727200X1.727200*%
%ADD13O,1.727200X1.727200*%
%ADD14R,1.050000X0.650000*%
%ADD15R,0.650000X1.050000*%
%ADD16R,0.900000X1.200000*%
%ADD17R,1.397000X1.397000*%
%ADD18C,1.397000*%
%ADD19O,0.899160X1.400000*%
%ADD20O,0.900000X1.400000*%
%ADD21O,1.400000X0.900000*%
%ADD22O,1.400000X0.899160*%
%ADD23O,4.500000X4.500000*%
%ADD24R,1.198880X1.198880*%
%ADD25C,0.600000*%
%ADD26C,0.180000*%
G04 APERTURE END LIST*
D10*
D11*
X132080000Y-119126000D03*
X129540000Y-119126000D03*
X132080000Y-116586000D03*
X129540000Y-116586000D03*
X132080000Y-93726000D03*
X129540000Y-93726000D03*
X132080000Y-91186000D03*
X129540000Y-91186000D03*
X165100000Y-88646000D03*
X162560000Y-88646000D03*
X160020000Y-88646000D03*
X157480000Y-88646000D03*
X154940000Y-88646000D03*
X152400000Y-88646000D03*
X149860000Y-88646000D03*
X147320000Y-88646000D03*
X144780000Y-88646000D03*
X142240000Y-88646000D03*
X139700000Y-88646000D03*
X137160000Y-88646000D03*
X134620000Y-88646000D03*
X132080000Y-88646000D03*
X129540000Y-88646000D03*
X165100000Y-86106000D03*
X162560000Y-86106000D03*
X160020000Y-86106000D03*
X157480000Y-86106000D03*
X154940000Y-86106000D03*
X152400000Y-86106000D03*
X149860000Y-86106000D03*
X147320000Y-86106000D03*
X144780000Y-86106000D03*
X142240000Y-86106000D03*
X139700000Y-86106000D03*
X137160000Y-86106000D03*
X134620000Y-86106000D03*
X132080000Y-86106000D03*
X129540000Y-86106000D03*
X165100000Y-83566000D03*
X162560000Y-83566000D03*
X160020000Y-83566000D03*
X157480000Y-83566000D03*
X154940000Y-83566000D03*
X152400000Y-83566000D03*
X149860000Y-83566000D03*
X147320000Y-83566000D03*
X144780000Y-83566000D03*
X142240000Y-83566000D03*
X139700000Y-83566000D03*
X137160000Y-83566000D03*
X134620000Y-83566000D03*
X132080000Y-83566000D03*
X129540000Y-83566000D03*
X165100000Y-81026000D03*
X162560000Y-81026000D03*
X160020000Y-81026000D03*
X157480000Y-81026000D03*
X154940000Y-81026000D03*
X152400000Y-81026000D03*
X149860000Y-81026000D03*
X147320000Y-81026000D03*
X144780000Y-81026000D03*
X142240000Y-81026000D03*
X139700000Y-81026000D03*
X137160000Y-81026000D03*
X134620000Y-81026000D03*
X132080000Y-81026000D03*
D12*
X165100000Y-91186000D03*
D13*
X165100000Y-93726000D03*
X162560000Y-91186000D03*
X162560000Y-93726000D03*
X160020000Y-91186000D03*
X160020000Y-93726000D03*
X157480000Y-91186000D03*
X157480000Y-93726000D03*
X154940000Y-91186000D03*
X154940000Y-93726000D03*
X152400000Y-91186000D03*
X152400000Y-93726000D03*
X149860000Y-91186000D03*
X149860000Y-93726000D03*
X147320000Y-91186000D03*
X147320000Y-93726000D03*
X144780000Y-91186000D03*
X144780000Y-93726000D03*
X142240000Y-91186000D03*
X142240000Y-93726000D03*
X139700000Y-91186000D03*
X139700000Y-93726000D03*
X137160000Y-91186000D03*
X137160000Y-93726000D03*
X134620000Y-91186000D03*
X134620000Y-93726000D03*
D14*
X165277000Y-103530000D03*
X161127000Y-103530000D03*
X165277000Y-101380000D03*
X161127000Y-101380000D03*
D15*
X133248000Y-106503000D03*
X133248000Y-110653000D03*
X131098000Y-106503000D03*
X131098000Y-110653000D03*
D16*
X157798000Y-100310000D03*
X157798000Y-102510000D03*
D17*
X165100000Y-97536000D03*
D18*
X162560000Y-97536000D03*
X160020000Y-97536000D03*
X157480000Y-97536000D03*
X154940000Y-97536000D03*
X152400000Y-97536000D03*
X149860000Y-97536000D03*
X147320000Y-97536000D03*
X144780000Y-97536000D03*
X142240000Y-97536000D03*
X139700000Y-97536000D03*
X137160000Y-97536000D03*
X134620000Y-97536000D03*
X132080000Y-97536000D03*
X132080000Y-112776000D03*
X134620000Y-112776000D03*
X137160000Y-112776000D03*
X139700000Y-112776000D03*
X142240000Y-112776000D03*
X144780000Y-112776000D03*
X147320000Y-112776000D03*
X149860000Y-112776000D03*
X152400000Y-112776000D03*
X154940000Y-112776000D03*
X157480000Y-112776000D03*
X160020000Y-112776000D03*
X162560000Y-112776000D03*
X165100000Y-112776000D03*
D12*
X165100000Y-116586000D03*
D13*
X165100000Y-119126000D03*
X162560000Y-116586000D03*
X162560000Y-119126000D03*
X160020000Y-116586000D03*
X160020000Y-119126000D03*
X157480000Y-116586000D03*
X157480000Y-119126000D03*
X154940000Y-116586000D03*
X154940000Y-119126000D03*
X152400000Y-116586000D03*
X152400000Y-119126000D03*
X149860000Y-116586000D03*
X149860000Y-119126000D03*
X147320000Y-116586000D03*
X147320000Y-119126000D03*
X144780000Y-116586000D03*
X144780000Y-119126000D03*
X142240000Y-116586000D03*
X142240000Y-119126000D03*
X139700000Y-116586000D03*
X139700000Y-119126000D03*
X137160000Y-116586000D03*
X137160000Y-119126000D03*
X134620000Y-116586000D03*
X134620000Y-119126000D03*
D19*
X151130000Y-98419920D03*
X149860000Y-98419920D03*
X148590000Y-98419920D03*
X147320000Y-98419920D03*
D20*
X146050000Y-98419920D03*
X144780000Y-98419920D03*
X143510000Y-98419920D03*
X142240000Y-98419920D03*
D21*
X139948920Y-100711000D03*
X139948920Y-101981000D03*
X139948920Y-103251000D03*
X139948920Y-104521000D03*
X139948920Y-105791000D03*
X139948920Y-107061000D03*
X139948920Y-108331000D03*
X139948920Y-109601000D03*
D20*
X142240000Y-111889540D03*
X143510000Y-111889540D03*
X144780000Y-111889540D03*
X146050000Y-111889540D03*
X147320000Y-111889540D03*
X148590000Y-111889540D03*
X149860000Y-111889540D03*
X151130000Y-111889540D03*
D22*
X153418540Y-109601000D03*
D21*
X153418540Y-108331000D03*
X153418540Y-107061000D03*
X153418540Y-105791000D03*
X153418540Y-104521000D03*
D23*
X151000000Y-101571000D03*
D24*
X165354000Y-106773980D03*
X165354000Y-108872020D03*
X161480500Y-106773980D03*
X161480500Y-108872020D03*
D11*
X129540000Y-81026000D03*
D15*
X133248000Y-99518000D03*
X133248000Y-103668000D03*
X131098000Y-99518000D03*
X131098000Y-103668000D03*
D25*
X141018200Y-99347600D03*
X153733500Y-96647000D03*
X154305000Y-101155500D03*
X142049500Y-103822500D03*
X146875500Y-107314996D03*
X147955000Y-105854500D03*
X157797506Y-104457500D03*
X161127000Y-102510000D03*
X148590000Y-110490000D03*
X164719014Y-110680500D03*
X157480000Y-109601000D03*
X157860998Y-107061000D03*
X153088400Y-114209200D03*
X151193500Y-95694496D03*
X149860000Y-114197900D03*
X151205007Y-108561458D03*
X155321000Y-104648000D03*
X139238600Y-110441900D03*
X165354000Y-105156000D03*
X162560000Y-106743500D03*
X134052400Y-107485000D03*
D26*
X144208500Y-105219500D02*
X142367000Y-107061000D01*
X142367000Y-107061000D02*
X139948920Y-107061000D01*
X144208500Y-102552500D02*
X144208500Y-105219500D01*
X141539600Y-99883600D02*
X144208500Y-102552500D01*
X141539600Y-99869000D02*
X141539600Y-99883600D01*
X159671100Y-104794902D02*
X159671100Y-110017850D01*
X162560000Y-97536000D02*
X159671977Y-100424023D01*
X159671977Y-102406475D02*
X159681001Y-102415499D01*
X159671977Y-104794025D02*
X159671100Y-104794902D01*
X160969900Y-111316650D02*
X160969900Y-115636100D01*
X159681001Y-102714301D02*
X159671977Y-102723325D01*
X159681001Y-102415499D02*
X159681001Y-102714301D01*
X160969900Y-115636100D02*
X160883599Y-115722401D01*
X160883599Y-115722401D02*
X160020000Y-116586000D01*
X159671977Y-100424023D02*
X159671977Y-102406475D01*
X159671100Y-110017850D02*
X160969900Y-111316650D01*
X159671977Y-102723325D02*
X159671977Y-104794025D01*
X141539600Y-99869000D02*
X141018200Y-99347600D01*
X160020000Y-91186000D02*
X160020000Y-92299900D01*
X161290000Y-96266000D02*
X162560000Y-97536000D01*
X161290000Y-93339100D02*
X161290000Y-96266000D01*
X160250800Y-92299900D02*
X161290000Y-93339100D01*
X160020000Y-92299900D02*
X160250800Y-92299900D01*
X139948920Y-100711000D02*
X141414500Y-100711000D01*
X153733500Y-100584000D02*
X153733500Y-96647000D01*
X154305000Y-101155500D02*
X153733500Y-100584000D01*
X142049500Y-101346000D02*
X142049500Y-103822500D01*
X141414500Y-100711000D02*
X142049500Y-101346000D01*
X146875500Y-101785400D02*
X146875500Y-106890732D01*
X146875500Y-106890732D02*
X146875500Y-107314996D01*
X143510000Y-98419900D02*
X146875500Y-101785400D01*
X147955000Y-100203000D02*
X148590000Y-99568000D01*
X148590000Y-99568000D02*
X148590000Y-98419920D01*
X147955000Y-105854500D02*
X147955000Y-100203000D01*
X154628300Y-97536000D02*
X154940000Y-97536000D01*
X147320000Y-98419900D02*
X147320000Y-97536000D01*
X144780000Y-98419900D02*
X144780000Y-97536000D01*
X142240000Y-97536000D02*
X142240000Y-98869500D01*
X147447000Y-109918500D02*
X150899200Y-109918500D01*
X142240000Y-98869500D02*
X145415000Y-102044500D01*
X152985300Y-120245300D02*
X153826100Y-119404500D01*
X145415000Y-102044500D02*
X145415000Y-107886500D01*
X145415000Y-107886500D02*
X147447000Y-109918500D01*
X150899200Y-109918500D02*
X153352700Y-112372000D01*
X153352700Y-112372000D02*
X153352700Y-113166700D01*
X153352700Y-113166700D02*
X151238200Y-115281200D01*
X151238200Y-115281200D02*
X151238200Y-119554500D01*
X151238200Y-119554500D02*
X151929000Y-120245300D01*
X153826100Y-119404500D02*
X153826100Y-119126000D01*
X151929000Y-120245300D02*
X152985300Y-120245300D01*
X153826100Y-119126000D02*
X154940000Y-119126000D01*
X139700000Y-97536000D02*
X137668000Y-99568000D01*
X137668000Y-99568000D02*
X137668000Y-101854000D01*
X137668000Y-101854000D02*
X137795000Y-101981000D01*
X137795000Y-101981000D02*
X139948920Y-101981000D01*
X138239500Y-96075500D02*
X134705200Y-96075500D01*
X134705200Y-96075500D02*
X134200100Y-96580600D01*
X139700000Y-97536000D02*
X138239500Y-96075500D01*
X133248000Y-97532700D02*
X133248000Y-99518000D01*
X134200100Y-96580600D02*
X133248000Y-97532700D01*
X133248000Y-99518000D02*
X133248000Y-103668000D01*
X137160000Y-97536000D02*
X137160000Y-102997000D01*
X137160000Y-102997000D02*
X137414000Y-103251000D01*
X137414000Y-103251000D02*
X139948900Y-103251000D01*
X139948900Y-104521000D02*
X135128000Y-104521000D01*
X135128000Y-104521000D02*
X134620000Y-104013000D01*
X134620000Y-104013000D02*
X134620000Y-97536000D01*
X132080000Y-112776000D02*
X132080000Y-106370998D01*
X132080000Y-106370998D02*
X133289998Y-105161000D01*
X133289998Y-105161000D02*
X139068920Y-105161000D01*
X139068920Y-105161000D02*
X139698920Y-105791000D01*
X139698920Y-105791000D02*
X139948920Y-105791000D01*
X134620000Y-108839000D02*
X135128000Y-108331000D01*
X135128000Y-108331000D02*
X139948920Y-108331000D01*
X134620000Y-112776000D02*
X134620000Y-108839000D01*
X139948900Y-108331000D02*
X138998600Y-108331000D01*
X139948900Y-109601000D02*
X137601600Y-109601000D01*
X137160000Y-110042600D02*
X137160000Y-112776000D01*
X137601600Y-109601000D02*
X137160000Y-110042600D01*
X141536800Y-110939200D02*
X139700000Y-112776000D01*
X143510000Y-110939200D02*
X141536800Y-110939200D01*
X143510000Y-111889500D02*
X143510000Y-110939200D01*
X162560000Y-91186000D02*
X163897000Y-92523000D01*
X160351999Y-102124801D02*
X160361023Y-102133825D01*
X163897000Y-92523000D02*
X163897000Y-98038400D01*
X160351999Y-100951001D02*
X160351999Y-102124801D01*
X163897000Y-98038400D02*
X161218000Y-100717400D01*
X161218000Y-100717400D02*
X160585600Y-100717400D01*
X160585600Y-100717400D02*
X160351999Y-100951001D01*
X163131500Y-104711500D02*
X163766500Y-105346500D01*
X160361023Y-102133825D02*
X160361023Y-102995975D01*
X160361023Y-102995975D02*
X160351999Y-103004999D01*
X163766500Y-105346500D02*
X163766500Y-115379500D01*
X163423599Y-115722401D02*
X162560000Y-116586000D01*
X160351999Y-103004999D02*
X160351999Y-103966301D01*
X160351999Y-103966301D02*
X161097198Y-104711500D01*
X161097198Y-104711500D02*
X163131500Y-104711500D01*
X163766500Y-115379500D02*
X163423599Y-115722401D01*
X142240000Y-111889500D02*
X142240000Y-112776000D01*
X144780000Y-111889500D02*
X144780000Y-112776000D01*
X157798000Y-104457006D02*
X157797506Y-104457500D01*
X157798000Y-102510000D02*
X157798000Y-104457006D01*
X147320000Y-111889500D02*
X147320000Y-112776000D01*
X161127000Y-103530000D02*
X161127000Y-102510000D01*
X165277000Y-103530000D02*
X164501700Y-103530000D01*
X161127000Y-103530000D02*
X164501700Y-103530000D01*
X149860000Y-111889500D02*
X149860000Y-112776000D01*
X152336200Y-112839800D02*
X152400000Y-112776000D01*
X151130000Y-112839800D02*
X152336200Y-112839800D01*
X151130000Y-111889500D02*
X151130000Y-112839800D01*
X148590000Y-111889500D02*
X148590000Y-110490000D01*
X153418500Y-109601000D02*
X154368900Y-109601000D01*
X154368900Y-109664900D02*
X157480000Y-112776000D01*
X154368900Y-109601000D02*
X154368900Y-109664900D01*
X165354000Y-108872020D02*
X165354000Y-110045514D01*
X165019013Y-110380501D02*
X164719014Y-110680500D01*
X165354000Y-110045514D02*
X165019013Y-110380501D01*
X165354000Y-108872000D02*
X165354000Y-109473998D01*
X155568540Y-109601000D02*
X157480000Y-109601000D01*
X153418540Y-108331000D02*
X154298540Y-108331000D01*
X154298540Y-108331000D02*
X155568540Y-109601000D01*
X161480500Y-110236000D02*
X162560000Y-111315500D01*
X162560000Y-111315500D02*
X162560000Y-112776000D01*
X161480500Y-108872020D02*
X161480500Y-110236000D01*
X153418500Y-107061000D02*
X157860998Y-107061000D01*
X144780000Y-91186000D02*
X144780000Y-92299900D01*
X165100000Y-91186000D02*
X163986100Y-91186000D01*
X157798000Y-100310000D02*
X158498300Y-100310000D01*
X159493100Y-90072000D02*
X158750000Y-90815100D01*
X163150600Y-90072000D02*
X159493100Y-90072000D01*
X163986100Y-90907500D02*
X163150600Y-90072000D01*
X163986100Y-91186000D02*
X163986100Y-90907500D01*
X158750000Y-100058300D02*
X158498300Y-100310000D01*
X158750000Y-90815100D02*
X158750000Y-100058300D01*
X158006900Y-90072000D02*
X158750000Y-90815100D01*
X149392900Y-90072000D02*
X158006900Y-90072000D01*
X148590000Y-90874900D02*
X149392900Y-90072000D01*
X148590000Y-91499500D02*
X148590000Y-90874900D01*
X147789500Y-92300000D02*
X148590000Y-91499500D01*
X147089100Y-92300000D02*
X147789500Y-92300000D01*
X146050000Y-93339100D02*
X147089100Y-92300000D01*
X146050000Y-98419900D02*
X146050000Y-93339100D01*
X145010800Y-92299900D02*
X144780000Y-92299900D01*
X146050000Y-93339100D02*
X145010800Y-92299900D01*
X157480000Y-116586000D02*
X158750000Y-115316000D01*
X156616401Y-92049599D02*
X157480000Y-91186000D01*
X158750000Y-106287504D02*
X156366000Y-103903504D01*
X156366000Y-92300000D02*
X156616401Y-92049599D01*
X158750000Y-115316000D02*
X158750000Y-106287504D01*
X156366000Y-103903504D02*
X156366000Y-92300000D01*
X152400000Y-116586000D02*
X152400000Y-115472100D01*
X153088400Y-114783700D02*
X153088400Y-114209200D01*
X152400000Y-115472100D02*
X153088400Y-114783700D01*
X151193500Y-95270232D02*
X151193500Y-95694496D01*
X149860000Y-91186000D02*
X151193500Y-92519500D01*
X151193500Y-92519500D02*
X151193500Y-95270232D01*
X149860000Y-116586000D02*
X149860000Y-114197900D01*
X147320000Y-91186000D02*
X146206100Y-91186000D01*
X147550800Y-117699900D02*
X147320000Y-117699900D01*
X148442800Y-118591900D02*
X147550800Y-117699900D01*
X148442800Y-119642200D02*
X148442800Y-118591900D01*
X147487800Y-120597200D02*
X148442800Y-119642200D01*
X134470400Y-120597200D02*
X147487800Y-120597200D01*
X133336000Y-119462800D02*
X134470400Y-120597200D01*
X133336000Y-118726300D02*
X133336000Y-119462800D01*
X132465700Y-117856000D02*
X133336000Y-118726300D01*
X131764400Y-117856000D02*
X132465700Y-117856000D01*
X130757600Y-116849200D02*
X131764400Y-117856000D01*
X130757600Y-115707000D02*
X130757600Y-116849200D01*
X130502400Y-115451800D02*
X130757600Y-115707000D01*
X130502400Y-94651000D02*
X130502400Y-115451800D01*
X130966100Y-94187300D02*
X130502400Y-94651000D01*
X130966100Y-93192500D02*
X130966100Y-94187300D01*
X131582200Y-92576400D02*
X130966100Y-93192500D01*
X132345300Y-92576400D02*
X131582200Y-92576400D01*
X133506100Y-91415600D02*
X132345300Y-92576400D01*
X133506100Y-90665700D02*
X133506100Y-91415600D01*
X134162100Y-90009700D02*
X133506100Y-90665700D01*
X145260600Y-90009700D02*
X134162100Y-90009700D01*
X146206100Y-90955200D02*
X145260600Y-90009700D01*
X146206100Y-91186000D02*
X146206100Y-90955200D01*
X147320000Y-116586000D02*
X147320000Y-117699900D01*
X139700000Y-93726000D02*
X139700000Y-94839900D01*
X139700000Y-94839900D02*
X140970100Y-96110000D01*
X140970100Y-96110000D02*
X140970100Y-98521200D01*
X140970100Y-98521200D02*
X144716500Y-102267600D01*
X138583900Y-112533300D02*
X138583900Y-117174500D01*
X138583900Y-117174500D02*
X139421500Y-118012100D01*
X144716500Y-102267600D02*
X144716500Y-109029500D01*
X144716500Y-109029500D02*
X143637000Y-110109000D01*
X143637000Y-110109000D02*
X141008200Y-110109000D01*
X141008200Y-110109000D02*
X138583900Y-112533300D01*
X139421500Y-118012100D02*
X139700000Y-118012100D01*
X139700000Y-118012100D02*
X139700000Y-119126000D01*
X151205007Y-108985722D02*
X151205007Y-108561458D01*
X153693100Y-112231000D02*
X151205007Y-109742907D01*
X153693100Y-117832900D02*
X153693100Y-112231000D01*
X152400000Y-119126000D02*
X153693100Y-117832900D01*
X151205007Y-109742907D02*
X151205007Y-108985722D01*
X153886021Y-94589599D02*
X155938499Y-96642077D01*
X152400000Y-93726000D02*
X153263599Y-94589599D01*
X155938499Y-104030501D02*
X155620999Y-104348001D01*
X155620999Y-104348001D02*
X155321000Y-104648000D01*
X155938499Y-96642077D02*
X155938499Y-104030501D01*
X153263599Y-94589599D02*
X153886021Y-94589599D01*
X164501700Y-99083100D02*
X164501700Y-101380000D01*
X165100000Y-97536000D02*
X165100000Y-98484800D01*
X165100000Y-98484800D02*
X164501700Y-99083100D01*
X153418500Y-105791000D02*
X152188002Y-107021498D01*
X152098300Y-107414704D02*
X152098300Y-110035900D01*
X152188002Y-107325002D02*
X152098300Y-107414704D01*
X153198600Y-111136200D02*
X154645000Y-111136200D01*
X154645000Y-111136200D02*
X155917100Y-112408300D01*
X155803599Y-115722401D02*
X154940000Y-116586000D01*
X155917100Y-115608900D02*
X155803599Y-115722401D01*
X155917100Y-112408300D02*
X155917100Y-115608900D01*
X152098300Y-110035900D02*
X153198600Y-111136200D01*
X152188002Y-107021498D02*
X152188002Y-107325002D01*
X131098000Y-103668000D02*
X131098000Y-106503000D01*
X131098000Y-106503000D02*
X131098000Y-110653000D01*
X134620000Y-116586000D02*
X133506100Y-116586000D01*
X133506100Y-116040200D02*
X133506100Y-116586000D01*
X131098000Y-113632100D02*
X133506100Y-116040200D01*
X131098000Y-111428300D02*
X131098000Y-113632100D01*
X131098000Y-110653000D02*
X131098000Y-111428300D01*
X134389200Y-92299900D02*
X134620000Y-92299900D01*
X133229600Y-93459500D02*
X134389200Y-92299900D01*
X133229600Y-96386400D02*
X133229600Y-93459500D01*
X132080000Y-97536000D02*
X133229600Y-96386400D01*
X142240000Y-119126000D02*
X142240000Y-118012100D01*
X143353900Y-116412600D02*
X146038000Y-113728500D01*
X143353900Y-117176800D02*
X143353900Y-116412600D01*
X142518600Y-118012100D02*
X143353900Y-117176800D01*
X142240000Y-118012100D02*
X142518600Y-118012100D01*
X146050000Y-113716500D02*
X146050000Y-111889500D01*
X146038000Y-113728500D02*
X146050000Y-113716500D01*
X149629200Y-118012100D02*
X149860000Y-118012100D01*
X148469600Y-116852500D02*
X149629200Y-118012100D01*
X148469600Y-116160100D02*
X148469600Y-116852500D01*
X146038000Y-113728500D02*
X148469600Y-116160100D01*
X149860000Y-119126000D02*
X149860000Y-118012100D01*
X165277000Y-101380000D02*
X164501700Y-101380000D01*
X161127000Y-101380000D02*
X164501700Y-101380000D01*
X131098000Y-99518000D02*
X131098000Y-103668000D01*
X132080000Y-97760700D02*
X132080000Y-97536000D01*
X131098000Y-98742700D02*
X132080000Y-97760700D01*
X131098000Y-99518000D02*
X131098000Y-98742700D01*
X134620000Y-91186000D02*
X134620000Y-92214800D01*
X134620000Y-92214800D02*
X134620000Y-92299900D01*
X141126100Y-93495200D02*
X141126100Y-93726000D01*
X139930800Y-92299900D02*
X141126100Y-93495200D01*
X134620000Y-92299900D02*
X139930800Y-92299900D01*
X142240000Y-93726000D02*
X141126100Y-93726000D01*
X149860000Y-98419900D02*
X149860000Y-97536000D01*
X137160000Y-116586000D02*
X137160000Y-115472100D01*
X138243500Y-111437000D02*
X139238600Y-110441900D01*
X138243500Y-114388600D02*
X138243500Y-111437000D01*
X137160000Y-115472100D02*
X138243500Y-114388600D01*
X152333500Y-97469500D02*
X152400000Y-97536000D01*
X151130000Y-97469500D02*
X152333500Y-97469500D01*
X151130000Y-98419900D02*
X151130000Y-97469500D01*
X160021012Y-102274662D02*
X160011988Y-102265638D01*
X160011400Y-104935450D02*
X160011988Y-104934862D01*
X160011400Y-109794839D02*
X160011400Y-104935450D01*
X161446100Y-118012100D02*
X161446100Y-111229539D01*
X160011988Y-104934862D02*
X160011988Y-102864162D01*
X160021012Y-102855138D02*
X160021012Y-102274662D01*
X163515800Y-94681800D02*
X163423599Y-94589599D01*
X161446100Y-111229539D02*
X160011400Y-109794839D01*
X160011988Y-102265638D02*
X160011988Y-100809712D01*
X163515800Y-97929900D02*
X163515800Y-94681800D01*
X160565000Y-100256700D02*
X161189000Y-100256700D01*
X161189000Y-100256700D02*
X163515800Y-97929900D01*
X160011988Y-100809712D02*
X160565000Y-100256700D01*
X162560000Y-119126000D02*
X161446100Y-118012100D01*
X160011988Y-102864162D02*
X160021012Y-102855138D01*
X163423599Y-94589599D02*
X162560000Y-93726000D01*
X165354000Y-106773980D02*
X165354000Y-105156000D01*
X161480500Y-106743500D02*
X162560000Y-106743500D01*
X144780000Y-119126000D02*
X143666100Y-119126000D01*
X133248000Y-106503000D02*
X133248000Y-107278300D01*
X133845700Y-107278300D02*
X134052400Y-107485000D01*
X133248000Y-107278300D02*
X133845700Y-107278300D01*
X133248000Y-112811100D02*
X133248000Y-110653000D01*
X136046000Y-115609100D02*
X133248000Y-112811100D01*
X136046000Y-117055500D02*
X136046000Y-115609100D01*
X136913600Y-117923100D02*
X136046000Y-117055500D01*
X137534600Y-117923100D02*
X136913600Y-117923100D01*
X138584100Y-118972600D02*
X137534600Y-117923100D01*
X138584100Y-119606400D02*
X138584100Y-118972600D01*
X139234500Y-120256800D02*
X138584100Y-119606400D01*
X142766100Y-120256800D02*
X139234500Y-120256800D01*
X143666100Y-119356800D02*
X142766100Y-120256800D01*
X143666100Y-119126000D02*
X143666100Y-119356800D01*
X133248000Y-110653000D02*
X133248000Y-107278300D01*
M02*
