G04 #@! TF.FileFunction,Soldermask,Bot*
%FSLAX46Y46*%
G04 Gerber Fmt 4.6, Leading zero omitted, Abs format (unit mm)*
G04 Created by KiCad (PCBNEW 4.0.2-stable) date 2016/05/22 12:46:19*
%MOMM*%
G01*
G04 APERTURE LIST*
%ADD10C,0.100000*%
%ADD11C,2.127200*%
%ADD12R,2.127200X2.127200*%
%ADD13O,2.127200X2.127200*%
%ADD14R,1.300000X1.600000*%
%ADD15R,1.797000X1.797000*%
%ADD16C,1.797000*%
%ADD17O,4.900000X4.900000*%
%ADD18R,1.600000X1.300000*%
G04 APERTURE END LIST*
D10*
D11*
X132080000Y-119126000D03*
X129540000Y-119126000D03*
X132080000Y-116586000D03*
X129540000Y-116586000D03*
X132080000Y-93726000D03*
X129540000Y-93726000D03*
X132080000Y-91186000D03*
X129540000Y-91186000D03*
X165100000Y-88646000D03*
X162560000Y-88646000D03*
X160020000Y-88646000D03*
X157480000Y-88646000D03*
X154940000Y-88646000D03*
X152400000Y-88646000D03*
X149860000Y-88646000D03*
X147320000Y-88646000D03*
X144780000Y-88646000D03*
X142240000Y-88646000D03*
X139700000Y-88646000D03*
X137160000Y-88646000D03*
X134620000Y-88646000D03*
X132080000Y-88646000D03*
X129540000Y-88646000D03*
X165100000Y-86106000D03*
X162560000Y-86106000D03*
X160020000Y-86106000D03*
X157480000Y-86106000D03*
X154940000Y-86106000D03*
X152400000Y-86106000D03*
X149860000Y-86106000D03*
X147320000Y-86106000D03*
X144780000Y-86106000D03*
X142240000Y-86106000D03*
X139700000Y-86106000D03*
X137160000Y-86106000D03*
X134620000Y-86106000D03*
X132080000Y-86106000D03*
X129540000Y-86106000D03*
X165100000Y-83566000D03*
X162560000Y-83566000D03*
X160020000Y-83566000D03*
X157480000Y-83566000D03*
X154940000Y-83566000D03*
X152400000Y-83566000D03*
X149860000Y-83566000D03*
X147320000Y-83566000D03*
X144780000Y-83566000D03*
X142240000Y-83566000D03*
X139700000Y-83566000D03*
X137160000Y-83566000D03*
X134620000Y-83566000D03*
X132080000Y-83566000D03*
X129540000Y-83566000D03*
X165100000Y-81026000D03*
X162560000Y-81026000D03*
X160020000Y-81026000D03*
X157480000Y-81026000D03*
X154940000Y-81026000D03*
X152400000Y-81026000D03*
X149860000Y-81026000D03*
X147320000Y-81026000D03*
X144780000Y-81026000D03*
X142240000Y-81026000D03*
X139700000Y-81026000D03*
X137160000Y-81026000D03*
X134620000Y-81026000D03*
X132080000Y-81026000D03*
D12*
X165100000Y-91186000D03*
D13*
X165100000Y-93726000D03*
X162560000Y-91186000D03*
X162560000Y-93726000D03*
X160020000Y-91186000D03*
X160020000Y-93726000D03*
X157480000Y-91186000D03*
X157480000Y-93726000D03*
X154940000Y-91186000D03*
X154940000Y-93726000D03*
X152400000Y-91186000D03*
X152400000Y-93726000D03*
X149860000Y-91186000D03*
X149860000Y-93726000D03*
X147320000Y-91186000D03*
X147320000Y-93726000D03*
X144780000Y-91186000D03*
X144780000Y-93726000D03*
X142240000Y-91186000D03*
X142240000Y-93726000D03*
X139700000Y-91186000D03*
X139700000Y-93726000D03*
X137160000Y-91186000D03*
X137160000Y-93726000D03*
X134620000Y-91186000D03*
X134620000Y-93726000D03*
D14*
X136144000Y-109685000D03*
X136144000Y-107485000D03*
X157798000Y-102510000D03*
X157798000Y-100310000D03*
D15*
X165100000Y-97536000D03*
D16*
X162560000Y-97536000D03*
X160020000Y-97536000D03*
X157480000Y-97536000D03*
X154940000Y-97536000D03*
X152400000Y-97536000D03*
X149860000Y-97536000D03*
X147320000Y-97536000D03*
X144780000Y-97536000D03*
X142240000Y-97536000D03*
X139700000Y-97536000D03*
X137160000Y-97536000D03*
X134620000Y-97536000D03*
X132080000Y-97536000D03*
X132080000Y-112776000D03*
X134620000Y-112776000D03*
X137160000Y-112776000D03*
X139700000Y-112776000D03*
X142240000Y-112776000D03*
X144780000Y-112776000D03*
X147320000Y-112776000D03*
X149860000Y-112776000D03*
X152400000Y-112776000D03*
X154940000Y-112776000D03*
X157480000Y-112776000D03*
X160020000Y-112776000D03*
X162560000Y-112776000D03*
X165100000Y-112776000D03*
D12*
X165100000Y-116586000D03*
D13*
X165100000Y-119126000D03*
X162560000Y-116586000D03*
X162560000Y-119126000D03*
X160020000Y-116586000D03*
X160020000Y-119126000D03*
X157480000Y-116586000D03*
X157480000Y-119126000D03*
X154940000Y-116586000D03*
X154940000Y-119126000D03*
X152400000Y-116586000D03*
X152400000Y-119126000D03*
X149860000Y-116586000D03*
X149860000Y-119126000D03*
X147320000Y-116586000D03*
X147320000Y-119126000D03*
X144780000Y-116586000D03*
X144780000Y-119126000D03*
X142240000Y-116586000D03*
X142240000Y-119126000D03*
X139700000Y-116586000D03*
X139700000Y-119126000D03*
X137160000Y-116586000D03*
X137160000Y-119126000D03*
X134620000Y-116586000D03*
X134620000Y-119126000D03*
D17*
X151000000Y-101571000D03*
D14*
X136144000Y-102827000D03*
X136144000Y-100627000D03*
X165354000Y-108923000D03*
X165354000Y-106723000D03*
D11*
X129540000Y-81026000D03*
D18*
X143426000Y-101536000D03*
X145626000Y-101536000D03*
X143362000Y-109220000D03*
X145562000Y-109220000D03*
D14*
X161417000Y-108902500D03*
X161417000Y-106702500D03*
M02*
