M48
;DRILL file {KiCad 4.0.2-stable} date 2016/05/22 12:46:23
;FORMAT={-:-/ absolute / inch / decimal}
FMAT,2
INCH,TZ
T1C0.016
T2C0.032
T3C0.040
T4C0.177
%
G90
G05
M72
T1
X5.2777Y-4.2317
X5.4818Y-4.3481
X5.5519Y-3.9113
X5.5925Y-4.0875
X5.7825Y-4.225
X5.825Y-4.1675
X5.85Y-4.35
X5.9Y-4.496
X5.9525Y-3.7675
X5.953Y-4.2741
X6.0271Y-4.4964
X6.0525Y-3.805
X6.075Y-3.9825
X6.115Y-4.12
X6.2Y-4.315
X6.2125Y-4.1125
X6.215Y-4.215
X6.3436Y-4.0358
X6.4Y-4.2025
X6.485Y-4.3575
X6.51Y-4.14
T2
X5.2Y-3.84
X5.2Y-4.44
X5.3Y-3.84
X5.3Y-4.44
X5.4Y-3.84
X5.4Y-4.44
X5.5Y-3.84
X5.5Y-4.44
X5.6Y-3.84
X5.6Y-4.44
X5.7Y-3.84
X5.7Y-4.44
X5.8Y-3.84
X5.8Y-4.44
X5.9Y-3.84
X5.9Y-4.44
X6.Y-3.84
X6.Y-4.44
X6.1Y-3.84
X6.1Y-4.44
X6.2Y-3.84
X6.2Y-4.44
X6.3Y-3.84
X6.3Y-4.44
X6.4Y-3.84
X6.4Y-4.44
X6.5Y-3.84
X6.5Y-4.44
T3
X5.1Y-3.19
X5.1Y-3.29
X5.1Y-3.39
X5.1Y-3.49
X5.1Y-3.59
X5.1Y-3.69
X5.1Y-4.59
X5.1Y-4.69
X5.2Y-3.19
X5.2Y-3.29
X5.2Y-3.39
X5.2Y-3.49
X5.2Y-3.59
X5.2Y-3.69
X5.2Y-4.59
X5.2Y-4.69
X5.3Y-3.19
X5.3Y-3.29
X5.3Y-3.39
X5.3Y-3.49
X5.3Y-3.59
X5.3Y-3.69
X5.3Y-4.59
X5.3Y-4.69
X5.4Y-3.19
X5.4Y-3.29
X5.4Y-3.39
X5.4Y-3.49
X5.4Y-3.59
X5.4Y-3.69
X5.4Y-4.59
X5.4Y-4.69
X5.5Y-3.19
X5.5Y-3.29
X5.5Y-3.39
X5.5Y-3.49
X5.5Y-3.59
X5.5Y-3.69
X5.5Y-4.59
X5.5Y-4.69
X5.6Y-3.19
X5.6Y-3.29
X5.6Y-3.39
X5.6Y-3.49
X5.6Y-3.59
X5.6Y-3.69
X5.6Y-4.59
X5.6Y-4.69
X5.7Y-3.19
X5.7Y-3.29
X5.7Y-3.39
X5.7Y-3.49
X5.7Y-3.59
X5.7Y-3.69
X5.7Y-4.59
X5.7Y-4.69
X5.8Y-3.19
X5.8Y-3.29
X5.8Y-3.39
X5.8Y-3.49
X5.8Y-3.59
X5.8Y-3.69
X5.8Y-4.59
X5.8Y-4.69
X5.9Y-3.19
X5.9Y-3.29
X5.9Y-3.39
X5.9Y-3.49
X5.9Y-3.59
X5.9Y-3.69
X5.9Y-4.59
X5.9Y-4.69
X6.Y-3.19
X6.Y-3.29
X6.Y-3.39
X6.Y-3.49
X6.Y-3.59
X6.Y-3.69
X6.Y-4.59
X6.Y-4.69
X6.1Y-3.19
X6.1Y-3.29
X6.1Y-3.39
X6.1Y-3.49
X6.1Y-3.59
X6.1Y-3.69
X6.1Y-4.59
X6.1Y-4.69
X6.2Y-3.19
X6.2Y-3.29
X6.2Y-3.39
X6.2Y-3.49
X6.2Y-3.59
X6.2Y-3.69
X6.2Y-4.59
X6.2Y-4.69
X6.3Y-3.19
X6.3Y-3.29
X6.3Y-3.39
X6.3Y-3.49
X6.3Y-3.59
X6.3Y-3.69
X6.3Y-4.59
X6.3Y-4.69
X6.4Y-3.19
X6.4Y-3.29
X6.4Y-3.39
X6.4Y-3.49
X6.4Y-3.59
X6.4Y-3.69
X6.4Y-4.59
X6.4Y-4.69
X6.5Y-3.19
X6.5Y-3.29
X6.5Y-3.39
X6.5Y-3.49
X6.5Y-3.59
X6.5Y-3.69
X6.5Y-4.59
X6.5Y-4.69
T4
X5.9449Y-3.9989G85X5.9449Y-3.9989
G05
T0
M30
